<?xml version="1.0" encoding="utf-8"?>
<!-- Generator: Adobe Illustrator 15.0.2, SVG Export Plug-In . SVG Version: 6.00 Build 0)  -->
<!DOCTYPE svg PUBLIC "-//W3C//DTD SVG 1.1//EN" "http://www.w3.org/Graphics/SVG/1.1/DTD/svg11.dtd">
<svg version="1.1" id="Livello_1" xmlns="http://www.w3.org/2000/svg" xmlns:xlink="http://www.w3.org/1999/xlink" x="0px" y="0px"
	 width="167.244px" height="120.5px" viewBox="-182.484 -358.74 167.244 120.5"
	 enable-background="new -182.484 -358.74 167.244 120.5" xml:space="preserve">
<g>
	<path d="M-141.701-339.005c-0.242,0.728-0.672,1.285-0.764,2.088c-0.15,1.023-0.113,2.104-0.168,3.169
		c-0.059,1.044,0.092,2.162-0.279,3.076c-0.783,0-0.541-0.652-0.541-1.156c0.018-0.766-0.021-1.733,0.055-2.687
		c0.059-0.875,0.281-1.938,0.113-2.737c-0.057-0.242-0.395-0.578-0.615-0.876c-0.578-0.746-1.176-1.885-1.641-2.628
		c-0.395-0.615-0.783-1.178-1.211-1.697c-0.373-0.466-1.025-0.987-1.082-1.642c0.688-0.094,1.119,0.652,1.473,1.102
		c1.174,1.472,2.236,3.188,3.279,4.752c0.986-1.845,1.324-4.343,2.369-6.132c0.277-0.093,0.596,0.131,0.764,0.337
		C-140.379-342.396-141.123-340.645-141.701-339.005z"/>
	<path d="M-133.52-344.242c1.418,0.354,2.965,1.753,3.617,3.094c0.652,1.287,0.559,2.892,0.111,4.735
		c-0.447,1.993-1.193,4.25-2.572,5.182c-2.684,1.696-5.424-0.168-6.375-2.405c-1.641-3.933-0.371-9.896,3.412-10.717
		c0.055-0.02,0.055,0,0.111,0C-134.916-344.41-133.947-344.391-133.52-344.242z M-135.477-331.195
		c1.025,0.188,2.404-0.409,2.945-0.895c1.063-1.008,1.566-2.686,1.92-4.381c0.205-0.949,0.467-2.161,0.41-3.002
		c-0.094-1.305-0.949-2.311-1.641-3.057c-0.875-0.895-1.811-1.286-3.432-1.082c-2.98,0.97-4.119,5.947-2.775,9.675
		C-137.693-332.984-136.445-331.382-135.477-331.195z"/>
	<path d="M-127.723-342.844c-0.094,1.397,0.227,3.338,0.316,4.886c0.131,1.789,0.299,3.354,0.729,4.547
		c0.148,0.467,0.484,1.119,0.875,1.474c0.506,0.446,1.922,0.986,3.004,0.502c1.174-0.521,1.619-3.95,1.693-5.592
		c0.074-1.341,0-3.019-0.146-4.659c-0.096-0.818-0.41-1.695-0.113-2.402c0.729-0.059,0.615,0.634,0.709,1.078
		c0.561,3.244,0.688,8.874-0.764,11.24c-0.82,1.306-3.227,1.491-4.771,0.335c-1.473-1.08-1.828-3.839-2.031-6.411
		c-0.168-1.938-0.354-3.71-0.205-5.479c0.02-0.317,0.074-0.729,0.205-0.936C-127.275-344.317-127.666-343.609-127.723-342.844z"/>
	<path d="M-107.928-343.459c-0.744-0.301-1.883-0.075-2.57,0.277c-2.777,1.345-3.096,8.294-1.23,10.85
		c0.783,1.081,2.629,1.527,3.914,0.446c0.504-0.446,0.615-1.174,1.063-1.731c1.154,0.56-0.057,1.845-0.447,2.18
		c-0.652,0.541-1.604,0.988-2.629,0.896c-3.262-0.354-4.082-3.857-3.838-7.827c0.146-2.2,0.816-4.476,2.385-5.313
		c1.063-0.56,2.646-0.819,3.803-0.225c0.447,0.242,0.934,0.56,0.838,1.119C-107.406-342.732-107.48-343.254-107.928-343.459z"/>
	<path d="M-99.578-337.121c0.037,0.298-0.279,0.204-0.227,0.502c0.375,1.511,0.842,3.094,1.309,4.549
		c0.146,0.446,0.391,0.95,0.279,1.416c-0.227,0.111-0.469,0.02-0.709,0c-0.635-1.976-1.23-3.988-1.754-6.076
		c-0.855-0.093-1.938,0-2.738,0.167c-0.484,1.399-0.875,3.281-1.416,4.813c-0.131,0.371-0.279,1.285-0.934,0.875
		c-0.02-0.562,0.334-1.043,0.484-1.583c0.969-3.375,1.621-6.77,2.795-10.084c0.188-0.541,0.447-1.213,0.652-1.529
		c0.635-0.447,0.895,0.764,1.045,1.417c0.373,1.603,0.559,3.765,0.818,5.163C-99.914-337.289-99.672-337.289-99.578-337.121z
		 M-100.846-337.402c-0.203-1.751-0.408-3.521-0.818-5.087c-0.652,1.622-1.063,3.467-1.584,5.2
		C-102.467-337.327-101.703-337.402-100.846-337.402z"/>
	<path d="M-89.215-330.934c-0.689,0.393-0.986-0.335-1.191-0.802c-0.729-1.565-1.361-3.672-2.201-5.144
		c-1.08-2.032-2.291-4.083-3.521-5.799c0,1.343-0.637,11.034-0.637,11.764c-0.223,0.071-0.559,0.146-0.781,0.056
		c0.074-2.015,0.148-4.083,0.279-6.021c0.166-2.461,0.279-4.924,0.334-7.157c0.82-0.206,1.455,0.67,1.828,1.19
		c-0.111-0.094,3.227,5.519,2.33,3.935c0.744,1.342,1.955,3.933,2.553,5.425c0.096-3.039-0.391-7.811-0.445-10.887
		c0.277-0.148,0.541-0.111,0.746,0.094C-89.605-340.254-89.699-334.96-89.215-330.934z"/>
	<path d="M-143.006-320.888c0.205,1.718,0.094,3.396,0.109,5.331c0.914,0.096,1.828,0.264,2.74,0.317
		c0.746,0,1.789-0.317,2.424,0.112c-0.146,0.465-0.818,0.482-1.248,0.54c-1.287,0.093-2.686-0.263-3.916-0.263
		c-0.242,2.031,0.188,4.417-0.109,6.395c-0.205,0.148-0.484,0-0.709-0.058c-0.148-4.343,0.131-8.928-0.168-13.178
		c0.057-0.075,0.094-0.056,0.168-0.111c1.549,0.058,4.193,0,5.814,0c0.504,0,1.102-0.073,1.342,0.393
		C-138.084-320.57-141.123-321.371-143.006-320.888z"/>
	<path d="M-134.674-311.287c0.072,1.022,0.203,1.957-0.037,2.758c-0.148,0.056-0.447,0.167-0.541,0
		c-0.299-0.168-0.131-0.541-0.131-0.82c-0.096-2.066-0.074-4.192-0.131-6.299c0-1.995-0.111-4.103,0.166-6.04
		c0.15-0.262,0.709-0.167,0.842,0.021C-134.6-318.333-134.805-314.923-134.674-311.287z"/>
	<path d="M-124.59-308.566c-0.689,0.391-0.988-0.335-1.193-0.802c-0.727-1.565-1.361-3.672-2.199-5.146
		c-1.082-2.03-2.293-4.083-3.521-5.797c0,1.341-0.635,11.034-0.635,11.764c-0.225,0.071-0.561,0.146-0.781,0.056
		c0.072-2.015,0.146-4.083,0.277-6.021c0.168-2.461,0.279-4.922,0.336-7.155c0.82-0.206,1.453,0.67,1.826,1.19
		c-0.109-0.094,3.227,5.519,2.33,3.935c0.746,1.342,1.957,3.933,2.553,5.425c0.096-3.039-0.391-7.813-0.445-10.887
		c0.277-0.148,0.541-0.111,0.746,0.094C-124.982-317.887-125.074-312.594-124.59-308.566z"/>
	<path d="M-122.541-321.764c2.162,0.504,4.082,1.082,5.426,2.519c1.023,1.063,1.676,2.89,1.453,4.809
		c-0.094,0.858-0.729,2.556-1.176,3.355c-0.986,1.938-3.783,3.542-6.484,2.35c-0.299-4.27,0-8.93,0.055-13.197
		c0.059-0.056,0.111-0.093,0.168-0.11C-122.82-321.986-122.746-321.838-122.541-321.764z M-122.484-309.182
		c0.969,0.225,1.977,0.188,2.795-0.168c1.715-0.708,3.15-3.671,3.244-5.424c0.131-1.564-0.428-3.094-1.174-3.97
		c-1.119-1.27-2.891-1.864-4.754-2.237c-0.037,0.021-0.057,0.075-0.057,0.168C-122.521-316.749-122.838-312.947-122.484-309.182z"/>
	<path d="M-98.943-310.785c-0.41-2.888-1.008-6.354-1.51-8.854c-0.336,1.453-1.715,5.053-2.293,5.982
		c-0.707,0.056-0.988-0.729-1.285-1.229c-0.877-1.641-1.715-3.56-2.48-5.273c-0.502,1.491-0.482,3.578-0.633,5.686
		c-0.131,1.117-0.148,1.994-0.314,3.263c-0.15,0.856-0.244,3.562-1.287,2.813c0.242-2.013,0.615-4.229,0.818-6.542
		c0.205-2.312,0.225-4.68,0.766-6.673c0.746-0.206,1.191,0.614,1.436,1.118c0.354,0.577,0.578,1.285,0.82,1.864
		c0.578,1.266,1.285,2.628,1.863,3.744c0.969-1.116,1.771-5.534,2.35-6.896c0.744-0.447,0.652,0.279,0.801,0.969
		c0.242,0.913,0.484,1.957,0.637,3.076c0.131,1.043,0.372,1.957,0.537,3.074c0.395,2.238,0.842,4.418,1.01,6.264
		C-98.701-307.766-98.832-310.021-98.943-310.785z"/>
	<path d="M-90.648-321.502c-1.455,0.056-3.299,0.037-4.529,0.335c0.02,1.771,0,3.688-0.057,5.761
		c1.117,0.092,2.422,0.146,3.635,0.056c0.766-0.056,1.68-0.429,2.068,0.226c-0.354,0.354-0.988,0.277-1.564,0.335
		c-1.27,0.13-2.738,0.169-4.082,0.109c-0.148,2.184-0.336,3.784-0.336,5.872c1.49,0.242,3.205-0.109,4.695-0.109
		c0.617,0,1.307,0.056,1.734,0.335c-0.299,0.746-1.193,0.278-1.848,0.278c-1.641,0-3.766,0.446-5.313,0
		c-0.148-4.323,0.373-9.356,0.17-13.421c1.229-0.503,3.521-0.354,5.254-0.445c0.523,0,1.623-0.279,1.566,0.392
		C-89.531-321.409-90.184-321.502-90.648-321.502z"/>
	<path d="M-119.484-286.648c-0.279-2.33-0.428-4.976-0.279-7.306c-2.143-0.206-3.932,0.429-5.813,0.727
		c-0.057,2.35,0.314,4.828,0.314,7.158c-0.131,0.092-0.576,0.13-0.633-0.038c-0.578-3.747-0.635-8.053-0.43-12.172
		c0.02-0.428-0.111-0.856,0.111-1.1c0.205,0.02,0.393,0.057,0.578,0.146c0.203,1.622-0.037,3.337,0.057,5.332
		c1.844-0.373,3.688-0.876,5.777-0.856c0.391-1.192-0.037-3.729,0.314-4.733c0.057-0.131,0.039-0.149,0.205-0.205
		c0.541-0.057,0.43,1.025,0.43,1.621c0,2.105-0.277,4.156-0.277,6.113c0,1.789,0.371,4.046,0.166,5.313
		C-119.203-286.594-119.203-286.648-119.484-286.648z"/>
	<path d="M-111.693-299.136c-1.453,0.058-3.299,0.036-4.529,0.335c0.021,1.771,0,3.69-0.055,5.762
		c1.117,0.093,2.422,0.146,3.635,0.057c0.766-0.057,1.678-0.43,2.068,0.223c-0.355,0.354-0.988,0.279-1.566,0.335
		c-1.268,0.133-2.738,0.171-4.082,0.112c-0.146,2.184-0.336,3.784-0.336,5.871c1.492,0.243,3.207-0.111,4.697-0.111
		c0.615,0,1.305,0.058,1.734,0.335c-0.299,0.746-1.193,0.28-1.848,0.28c-1.641,0-3.766,0.447-5.313,0
		c-0.148-4.324,0.373-9.355,0.168-13.42c1.229-0.504,3.521-0.354,5.256-0.448c0.523,0,1.623-0.277,1.566,0.395
		C-110.574-299.043-111.227-299.136-111.693-299.136z"/>
	<path d="M-103.045-289.313c0.277,1.118,0.709,2.199,0.803,3.244c-0.803,0.204-0.84-0.652-0.988-1.156
		c-0.445-1.526-0.877-3.504-1.324-4.995c-1.137,0.354-2.029,1.043-3.371,0.987c-0.188,1.417,0.109,3.804,0.055,5.052
		c-0.205,0.168-0.428-0.056-0.633-0.109c-0.504-4.232-0.354-8.612-0.354-12.938c1.49-0.596,3.615-0.577,4.771,0.17
		c1.992,1.248,2.402,5.106,0.24,6.374C-103.492-291.588-103.324-290.487-103.045-289.313z M-108.096-298.782
		c0.059,1.921-0.131,4.791,0.111,6.915c2.105-0.354,4.512-1.305,4.754-3.411C-102.877-298.186-105.17-299.584-108.096-298.782z"/>
	<path d="M-95.383-299.136c-1.455,0.058-3.303,0.036-4.529,0.335c0.018,1.771,0,3.69-0.059,5.762
		c1.119,0.093,2.424,0.146,3.637,0.057c0.764-0.057,1.678-0.43,2.066,0.223c-0.354,0.354-0.984,0.279-1.563,0.335
		c-1.271,0.133-2.74,0.171-4.082,0.112c-0.15,2.184-0.336,3.784-0.336,5.871c1.49,0.243,3.205-0.111,4.697-0.111
		c0.613,0,1.305,0.058,1.73,0.335c-0.299,0.746-1.193,0.28-1.846,0.28c-1.641,0-3.766,0.447-5.313,0
		c-0.146-4.324,0.375-9.355,0.17-13.42c1.229-0.504,3.521-0.354,5.256-0.448c0.521,0,1.621-0.277,1.564,0.395
		C-94.266-299.043-94.918-299.136-95.383-299.136z"/>
	<path d="M-91.713-286.741c0-0.95,1.791-0.279,0.895,0.56C-91.32-286.182-91.713-286.368-91.713-286.741z M-91.656-288.643
		c0.205-3.336,0.02-7.475,0.504-10.68c0.205-0.279,0.633-0.15,0.783,0.056c0.186,0.242,0,0.729-0.057,1.118
		c-0.059,0.466,0.057,0.913,0,1.454c-0.074,1.137-0.225,2.479-0.225,3.746c0,1.678,0.188,3.317-0.225,4.529
		C-91.266-288.363-91.451-288.512-91.656-288.643z"/>
</g>
<path d="M-33.848-267.779c-1.402-0.216-2.793-0.505-4.166-0.877c-1.553-0.849-3.26-1.433-5.139-1.831
	c-0.371-0.078-2.299,0.471-1.572,0.803c1.699,0.777,3.408,1.391,5.154,1.873c0.795,0.439,1.568,0.943,2.32,1.537
	c3.242,2.562-3.826,3.83-5.465,4.354c-6.83,2.183-14.191,2.68-21.164,0.958c-3.023-0.746-6.943-2.872-9.949-5.728
	c3.008-1.2,6.002-3.063,7.123-6.104c1.549-4.199-4.084-8.935-7.84-9.124c-2.752-0.144-4.582,1.938-5.227,4.395
	c-1.027,3.935,0.811,7.99,3.422,11.006c-1.705,0.51-3.371,0.838-4.617,1.057c-11.521,1.997-21.598-8.096-32.188-11.025
	c-0.482-0.134-2.207,0.627-1.572,0.803c8.252,2.284,15.129,7.612,23.242,10.241c5.197,1.686,10.301,1.13,15.42-0.458
	c0.07-0.021,0.143-0.045,0.211-0.065c0.518,0.551,1.055,1.063,1.604,1.524c10.221,8.578,26.219,5.915,37.76,0.979
	c-2.098,4.528-4.684,8.824-6.404,13.534c-0.189,0.525,1.615,0.102,1.838-0.2c4.4-5.979,8.328-12.75,15.021-16.447
	c0.547-0.303,0.434-0.604-0.164-0.608c-2.309-0.025-4.572-0.165-6.797-0.462 M-76.842-280.197c2.746-4.002,8.797,4.746,8.225,7.717
	c-0.488,2.537-2.965,4.188-5.732,5.276C-77.963-270.877-79.979-275.628-76.842-280.197z"/>
</svg>
