<?xml version="1.0" encoding="utf-8"?>
<!-- Generator: Adobe Illustrator 19.0.0, SVG Export Plug-In . SVG Version: 6.00 Build 0)  -->
<svg version="1.1" xmlns="http://www.w3.org/2000/svg" xmlns:xlink="http://www.w3.org/1999/xlink" x="0px" y="0px">
<symbol id="uk" viewBox="0 0 105 105" style="enable-background:new 0 0 105 105;" >
	<title>English Version</title>

	<g id="XMLID_57_" clip-path="url(#clip-uk)">
		<path id="XMLID_118_" fill="#CF172C" d="M41.6-1.8c7.3,0,14.5,0,21.8,0c0.4,0.4,0.4,0.9,0.4,1.3c0,3.6,0,7.3,0,10.9
			c0,9.7,0,19.4,0,29.1c0,0.3,0,0.6,0,0.9c0,0.6,0.3,0.9,0.9,0.9c0.4,0,0.8,0,1.2,0c31.2,0,62.4,0,93.7,0c0.7,0,1.4-0.2,1.9,0.4
			c0,7.3,0,14.5,0,21.8c-0.2,0.3-0.6,0.4-0.9,0.4c-0.5,0-1,0-1.4,0c-31.1,0-62.3,0-93.4,0c-2,0-2,0-2,2c0,13.2,0,26.4,0,39.6
			c0,0.6,0.2,1.2-0.4,1.7c-7.3,0-14.5,0-21.8,0c-0.4-0.4-0.4-0.9-0.4-1.3c0-3.6,0-7.3,0-10.9c0-9.7,0-19.4,0-29.1c0-0.3,0-0.6,0-0.9
			c0-0.6-0.3-0.9-0.9-0.9c-0.4,0-0.8,0-1.2,0c-31.2,0-62.4,0-93.7,0c-0.7,0-1.4,0.2-1.9-0.4c0-7.3,0-14.5,0-21.8
			c0.2-0.3,0.6-0.4,0.9-0.4c0.5,0,1,0,1.4,0c31.1,0,62.3,0,93.4,0c2,0,2,0,2-2c0-13.2,0-26.4,0-39.6C41.3-0.7,41.1-1.3,41.6-1.8z"/>
		<path id="XMLID_117_" fill="#FFFFFF" d="M41.6-1.8c0,14.2,0,28.4,0,42.7c0,0.8-0.2,1-1,1c-32.4,0-64.8,0-97.2,0c0-2.4,0-4.9,0-7.3
			c0.4-0.4,0.9-0.3,1.4-0.3c8.2,0,16.3,0,24.5,0c6.9,0,13.8,0,20.8,0C-24.9,26.6-40,19.1-55.1,11.5c-0.5-0.3-1.1-0.5-1.4-1
			c0-1.4,0-2.7,0-4.1c0.5-0.3,0.9,0,1.3,0.2c2.7,1.3,5.4,2.7,8.1,4c15.3,7.7,30.7,15.3,46,23c0.8,0.4,1.5,0.6,2.4,0.6
			c4.2,0,8.4,0,12.6,0c0.4,0,0.7,0,1,0.1c-0.2-0.1-0.5-0.2-0.8-0.3C-8.9,22.4-32,10.8-55-0.7c-0.5-0.2-1.2-0.3-1.3-1.1
			c8.1,0,16.2,0,24.4,0c1.2,0.2,2.3,0.8,3.4,1.4c20.5,10.2,41,20.5,61.4,30.7c0.1,0,0.2,0.1,0.2,0.1c0.8,0.4,0.9,0.4,0.9-0.5
			c0-10.1,0-20.2,0-30.2c0-0.5-0.1-1,0.3-1.4C36.7-1.8,39.2-1.8,41.6-1.8z"/>
		<path id="XMLID_116_" fill="#FFFFFF" d="M63.4,107.2c0-14.2,0-28.4,0-42.7c0-0.8,0.2-1,1-1c32.4,0,64.8,0,97.2,0c0,2.4,0,4.9,0,7.3
			c-0.4,0.4-0.9,0.3-1.4,0.3c-8.2,0-16.3,0-24.5,0c-6.9,0-13.8,0-20.7,0c15.1,7.5,30.2,15.1,45.3,22.6c0.5,0.3,1.1,0.5,1.4,1
			c0,1.4,0,2.7,0,4.1c-0.5,0.3-0.9,0-1.3-0.2c-2.7-1.3-5.4-2.7-8.1-4c-15.3-7.7-30.7-15.3-46-23c-0.8-0.4-1.5-0.6-2.4-0.6
			c-4.2,0-8.4,0-12.6,0c-0.4,0-0.7,0-1-0.1c0.2,0.1,0.5,0.2,0.8,0.3c23.1,11.5,46.1,23.1,69.1,34.6c0.5,0.2,1.2,0.3,1.3,1.1
			c-8.1,0-16.2,0-24.4,0c-1.2-0.2-2.3-0.8-3.4-1.4c-20.5-10.2-41-20.5-61.4-30.7c-0.1,0-0.2-0.1-0.2-0.1c-0.8-0.4-0.9-0.4-0.9,0.5
			c0,10.1,0,20.2,0,30.2c0,0.5,0.1,1-0.3,1.4C68.3,107.2,65.9,107.2,63.4,107.2z"/>
		<path id="XMLID_115_" fill="#FFFFFF" d="M161.5,41.8c-32.4,0-64.7,0-97.1,0c-0.8,0-1.1-0.2-1.1-1c0-14.2,0-28.4,0-42.6
			c2.4,0,4.9,0,7.3,0c0.4,0.4,0.3,0.9,0.3,1.4c0,10,0,19.9,0,29.9c0,1.3,0,1.3,1.2,0.7c20.8-10.4,41.6-20.8,62.4-31.2
			c0.7-0.4,1.5-0.6,2.3-0.8c2.7,0,5.5,0,8.2,0c0,0.6-0.5,0.7-0.9,0.9c-2.3,1.2-4.7,2.3-7,3.5C116.5,13,95.8,23.4,75,33.8
			c-0.4,0.2-0.7,0.4-1,0.5c0.3-0.1,0.7-0.1,1.1-0.1c4.1,0,8.3,0,12.4,0c1,0,1.8-0.2,2.7-0.6c13.1-6.6,26.2-13.1,39.4-19.7
			c10-5,20.1-10,30.1-15.1c0.6-0.3,1.2-0.3,1.8-0.6c0.4,0.2,0.2,0.5,0.2,0.7c0,3.9,0,7.7,0,11.6c-0.3,0.6-0.9,0.8-1.4,1
			c-14.3,7.1-28.6,14.3-42.8,21.4c-0.8,0.4-1.6,0.8-2.4,1.2c15.2,0,30.4,0,45.5,0c0.4,0,0.9,0,1.2,0.3
			C161.5,37,161.5,39.4,161.5,41.8z"/>
		<path id="XMLID_114_" fill="#FFFFFF" d="M-56.5,63.6c32.4,0,64.7,0,97.1,0c0.8,0,1.1,0.2,1.1,1c0,14.2,0,28.4,0,42.6
			c-2.4,0-4.9,0-7.3,0c-0.4-0.4-0.3-0.9-0.3-1.4c0-10,0-19.9,0-29.9c0-1.3,0-1.3-1.2-0.7C12,85.6-8.8,96-29.6,106.4
			c-0.7,0.4-1.5,0.6-2.3,0.8c-2.7,0-5.5,0-8.2,0c0-0.6,0.5-0.7,0.9-0.9c2.3-1.2,4.7-2.3,7-3.5C-11.5,92.5,9.2,82.1,30,71.7
			c0.4-0.2,0.7-0.4,1.1-0.5c-0.3,0.1-0.7,0.1-1.1,0.1c-4.1,0-8.3,0-12.4,0c-1,0-1.8,0.2-2.7,0.6C1.8,78.5-11.3,85-24.5,91.6
			c-10,5-20.1,10-30.1,15.1c-0.6,0.3-1.2,0.3-1.8,0.6c-0.4-0.2-0.2-0.5-0.2-0.7c0-3.9,0-7.7,0-11.6c0.3-0.6,0.9-0.8,1.4-1
			c14.3-7.1,28.6-14.3,42.8-21.4c0.8-0.4,1.6-0.8,2.4-1.2c-15.2,0-30.4,0-45.5,0c-0.4,0-0.9,0-1.2-0.3
			C-56.5,68.5-56.5,66.1-56.5,63.6z"/>
		<path id="XMLID_113_" fill="#27346C" d="M34.3-1.8c0,0.3,0,0.5,0,0.8c0,10.5,0,21.1,0,31.6c0,0.2,0,0.5,0,0.7c-0.4,0-0.6-0.2-0.9-0.3
			C11.9,20.2-9.7,9.5-31.2-1.3c-0.2-0.1-0.5-0.3-0.7-0.4C-9.9-1.8,12.2-1.8,34.3-1.8z"/>
		<path id="XMLID_112_" fill="#27346C" d="M137-1.8c-0.2,0.1-0.5,0.3-0.7,0.4C114.7,9.5,93.1,20.2,71.6,31c-0.2,0.1-0.5,0.3-0.8,0.3
			c0-0.2,0-0.4,0-0.6c0-10.7,0-21.3,0-32c0-0.2,0-0.3,0-0.5C92.8-1.8,114.9-1.8,137-1.8z"/>
		<path id="XMLID_111_" fill="#27346C" d="M-31.9,107.2c0.2-0.1,0.5-0.3,0.7-0.4C-9.7,96,11.9,85.2,33.5,74.4c0.2-0.1,0.5-0.2,0.8-0.4
			c0,0.3,0,0.5,0,0.6c0,10.7,0,21.3,0,32c0,0.2,0,0.3,0,0.5C12.2,107.2-9.9,107.2-31.9,107.2z"/>
		<path id="XMLID_110_" fill="#27346C" d="M70.8,107.2c0-0.3,0-0.5,0-0.8c0-10.5,0-21.1,0-31.6c0-0.2,0-0.5,0-0.7
			c0.4,0,0.6,0.2,0.9,0.3c21.6,10.8,43.2,21.6,64.7,32.4c0.2,0.1,0.5,0.3,0.7,0.4C114.9,107.2,92.8,107.2,70.8,107.2z"/>
		<path id="XMLID_109_" fill="#CF172C" d="M161.4-1.8c-0.2,0.3-0.5,0.3-0.7,0.4C137,10.5,113.4,22.3,89.7,34.1
			c-0.6,0.3-1.1,0.4-1.8,0.4c-5,0-9.9,0-15,0c0.2-0.4,0.5-0.4,0.8-0.5c23.5-11.8,47-23.5,70.6-35.3c0.3-0.2,0.6-0.3,0.9-0.5
			C150.6-1.8,156-1.8,161.4-1.8z"/>
		<path id="XMLID_108_" fill="#CF172C" d="M-56.3,107.2c0.2-0.3,0.5-0.3,0.7-0.4C-32,95-8.3,83.2,15.3,71.3c0.6-0.3,1.1-0.4,1.8-0.4
			c5,0,9.9,0,15,0c-0.2,0.4-0.5,0.4-0.8,0.5C7.8,83.2-15.7,95-39.2,106.7c-0.3,0.2-0.6,0.4-1,0.5C-45.5,107.2-50.9,107.2-56.3,107.2
			z"/>
		<path id="XMLID_107_" fill="#27346C" d="M-56.5,10.5c0.2,0.1,0.4,0.1,0.6,0.2c15.6,7.8,31.1,15.5,46.7,23.3c0.2,0.1,0.4,0.2,0.7,0.4
			c-0.2,0.2-0.5,0.1-0.7,0.1c-15.6,0-31.1,0-46.7,0c-0.2,0-0.4,0-0.6,0C-56.5,26.5-56.5,18.5-56.5,10.5z"/>
		<path id="XMLID_106_" fill="#27346C" d="M161.5,34.5c-0.3,0-0.6,0-0.8,0c-15.4,0-30.8,0-46.2,0c-0.3,0-0.6,0.1-0.9-0.1
			c0.3-0.1,0.5-0.3,0.7-0.4c15.6-7.8,31.1-15.6,46.7-23.3c0.2-0.1,0.4-0.2,0.6-0.2C161.5,18.5,161.5,26.5,161.5,34.5z"/>
		<path id="XMLID_105_" fill="#27346C" d="M-56.5,71c0.3,0,0.6,0,0.8,0c15.4,0,30.8,0,46.2,0c0.3,0,0.5,0,0.8,0c0,0,0,0.1,0,0.1
			c-0.2,0.1-0.4,0.2-0.6,0.3C-24.7,79.2-40.3,87-55.9,94.7c-0.2,0.1-0.4,0.2-0.6,0.2C-56.5,87-56.5,79-56.5,71z"/>
		<path id="XMLID_104_" fill="#27346C" d="M161.5,95c-0.2-0.1-0.4-0.1-0.6-0.2c-15.6-7.8-31.1-15.5-46.7-23.3c-0.2-0.1-0.4-0.2-0.7-0.4
			c0.2-0.2,0.5-0.1,0.7-0.1c15.6,0,31.1,0,46.7,0c0.2,0,0.4,0,0.6,0C161.5,79,161.5,87,161.5,95z"/>
		<path id="XMLID_103_" fill="#CF172C" d="M-56.3-1.8c0.2,0.3,0.5,0.3,0.8,0.5C-32,10.5-8.5,22.2,15,34c0.3,0.1,0.5,0.3,0.8,0.4
			c-0.3,0.2-0.6,0.1-0.9,0.1c-4.7,0-9.4,0-14,0c-0.7,0-1.3-0.2-1.9-0.5C-19.2,25-37.4,15.9-55.6,6.8c-0.3-0.1-0.6-0.2-0.8-0.4
			c0-2.6,0-5.1,0-7.7C-56.5-1.4-56.7-1.7-56.3-1.8z"/>
		<path id="XMLID_102_" fill="#CF172C" d="M161.4,107.2c-0.2-0.3-0.5-0.3-0.8-0.5C137.1,95,113.6,83.2,90,71.5
			c-0.3-0.1-0.5-0.3-0.8-0.4c0.3-0.2,0.6-0.1,0.9-0.1c4.7,0,9.4,0,14,0c0.7,0,1.3,0.2,1.9,0.5c18.2,9.1,36.4,18.2,54.6,27.3
			c0.3,0.1,0.6,0.2,0.9,0.4c0,2.6,0,5.1,0,7.7C161.5,106.9,161.7,107.2,161.4,107.2z"/>
	</g>
</symbol>
<symbol id="it" viewBox="0 0 105 105" style="enable-background:new 0 0 105 105;">
	<title>Italian Version</title>
	<g id="XMLID_45_" style="clip-path:url('#clip-it');">
		<path id="XMLID_63_" fill="#009246" d="M34.8,105.1c-11.7,0-23.3,0-35,0c-0.2,0-0.2,0-0.2-0.2c0-34.8,0-69.7,0-104.5
			C-0.4,0.1-0.3,0-0.1,0c11.7,0,23.3,0,35,0c0.1,0.1,0.1,0.2,0.1,0.3c0,0.2,0,0.3,0,0.5c0,34.5,0,69,0,103.5c0,0.2,0,0.3,0,0.5
			C34.9,104.9,34.9,105,34.8,105.1z"/>
		<path id="XMLID_62_" fill="#CE2D38" d="M105.2,105.1c-11.7,0-23.5,0-35.2,0c-0.1-0.1-0.1-0.2-0.1-0.3c0-0.2,0-0.3,0-0.5
			c0-34.5,0-69,0-103.5c0-0.2,0-0.3,0-0.5c0-0.1,0-0.2,0.1-0.3c11.7,0,23.5,0,35.2,0c0,0.1,0,0.2,0,0.3c0,34.8,0,69.6,0,104.4
			C105.2,104.9,105.2,105,105.2,105.1z"/>
		<path id="XMLID_61_" fill="#FEFEFE" d="M70,0.1c0,0.1,0,0.2,0,0.3c0,34.8,0,69.6,0,104.4c0,0.1,0,0.2,0,0.3c-11.7,0-23.4,0-35.1,0
			c0-0.1,0-0.2,0-0.3c0-34.8,0-69.6,0-104.4c0-0.1,0-0.2,0-0.3C46.5,0.1,58.2,0.1,70,0.1z"/>
		<path id="XMLID_60_" fill="#FFFFFF" d="M105.2,105.1c0-35,0-70,0-105c0,0,0.1,0,0.1,0c0,0.1,0,0.1,0,0.2c0,34.8,0,69.7,0,104.5
			C105.2,104.9,105.3,105,105.2,105.1z"/>
	</g>
</symbol>
</svg>