<?xml version="1.0" encoding="utf-8"?>
<!-- Generator: Adobe Illustrator 19.0.0, SVG Export Plug-In . SVG Version: 6.00 Build 0)  -->
<svg version="1.1" xmlns="http://www.w3.org/2000/svg" xmlns:xlink="http://www.w3.org/1999/xlink"
	 >
<symbol id="menu_burger" viewBox="0 0 51 34" style="enable-background:new 0 0 51 34;">
	<title>Menu Burger</title>
	<rect fill="#FFFFFF" id="XMLID_146_" x="9" y="13.2" class="st0" width="33.1" height="1"/>
	<rect fill="#FFFFFF" id="XMLID_147_" x="9" y="19.8" class="st0" width="33.1" height="1"/>
	<rect fill="#FFFFFF" id="XMLID_145_" x="9" y="6.6" class="st0" width="33.1" height="1"/>
	<rect fill="#FFFFFF" id="XMLID_148_" x="9" y="26.4" class="st0" width="33.1" height="1"/>
</symbol>

<symbol id="linkedin" viewBox="0 0 36.9 36.9" style="enable-background:new 0 0 36.9 36.9;" xml:space="preserve">
	<title>Linkedin</title>
	<path id="XMLID_232_" fill="currentColor" class="st0" d="M17.9,2.3C27.5,1.7,37,9.4,35.1,21.9c-2,13.3-19.5,16.9-27.9,8.9C-3.4,20.8,3.4,3.3,17.9,2.3z
		 M14.7,11.2c-1-4.6-8.2,2.9-0.9,2.3C14.4,12.6,15,12.4,14.7,11.2z M20.2,16.4c-0.1-0.5,0.3-1.4-0.6-1.2c-1,0-1.9,0-2.9,0
		c0,3.7,0,7.5,0,11.2c1.2,0,2.3,0,3.5,0c0.1-3.9-0.8-9.4,2.6-8.6c2.6,0.6,1,5.3,1.4,8.6c1.2,0,2.5,0,3.7,0
		C29.6,18.5,25.5,11.9,20.2,16.4z M11,26.5c1.2,0,2.3,0,3.5,0c0-3.7,0-7.5,0-11.2c-1.2,0-2.3,0-3.5,0C11,19,11,22.7,11,26.5z"/>
	<path id="XMLID_231_" fill="#FFFFFF" class="st1" d="M13.8,13.5c-7.3,0.6-0.1-6.9,0.9-2.3C15,12.4,14.4,12.6,13.8,13.5z"/>
	<path id="XMLID_230_" fill="#FFFFFF" class="st1" d="M27.9,26.5c-1.2,0-2.5,0-3.7,0c-0.5-3.4,1.2-8-1.4-8.6c-3.4-0.8-2.5,4.7-2.6,8.6
		c-1.2,0-2.3,0-3.5,0c0-3.7,0-7.5,0-11.2c1,0,1.9,0,2.9,0c0.9-0.3,0.5,0.6,0.6,1.2C25.5,11.9,29.6,18.5,27.9,26.5z"/>
	<path id="XMLID_229_" fill="#FFFFFF" class="st1" d="M11,15.3c1.2,0,2.3,0,3.5,0c0,3.7,0,7.5,0,11.2c-1.2,0-2.3,0-3.5,0C11,22.7,11,19,11,15.3z"/>
</symbol>

<symbol id="facebook" viewBox="0 0 36.9 36.9" style="enable-background:new 0 0 36.9 36.9;">
	<title>Facebook</title>
	<circle id="XMLID_2_" class="st0" cx="18.4" cy="18.4" r="13.3"/>
	<g id="XMLID_227_">
		<path id="XMLID_246_" fill="#FFFFFF" class="st0" d="M2.3,18.4c0,21.5,32.6,21,32.2-0.3C34.4,8.6,26.6,2,17.6,2.6C8.6,3.2,2.3,9.6,2.3,18.4z"/>
		<path id="XMLID_243_" fill="currentColor" class="st1" d="M17.6,2.6c9-0.6,16.8,6,17,15.5c0.3,21.3-32.2,21.7-32.2,0.3C2.3,9.6,8.6,3.2,17.6,2.6z
			 M15.8,15c-0.7,0-1.3,0-2,0c0,1.2,0,2.3,0,3.5c0.6,0.2,1.9-0.4,2,0.3c0,3.2,0,6.3,0,9.5c1.3,0,2.7,0,4,0c0-3.3,0-6.5,0-9.8
			c1,0,1.9,0,2.9,0c0-1.3-0.1-2.6,0.3-3.5c-1-0.2-2.7,0.4-3.2-0.3c0-1.2-0.1-2.4,0.6-2.9c0.9,0,1.7,0,2.6,0c0-1.1,0-2.1,0-3.2
			C17.8,7.9,15.1,9.7,15.8,15z"/>
		<path id="XMLID_242_" fill="#FFFFFF" class="st0" d="M23,8.6c0,1.1,0,2.1,0,3.2c-0.9,0-1.7,0-2.6,0c-0.7,0.5-0.6,1.7-0.6,2.9
			c0.5,0.7,2.2,0.1,3.2,0.3c-0.4,0.9-0.3,2.2-0.3,3.5c-1,0-1.9,0-2.9,0c0,3.3,0,6.5,0,9.8c-1.3,0-2.7,0-4,0c0-3.2,0-6.3,0-9.5
			c-0.1-0.6-1.4-0.1-2-0.3c0-1.2,0-2.3,0-3.5c0.7,0,1.3,0,2,0C15.1,9.7,17.8,7.9,23,8.6z"/>
	</g>
</symbol>

<symbol id="behance" viewBox="0 0 36.9 36.9" style="enable-background:new 0 0 36.9 36.9;" >
	<title>Behance</title>
	<path id="XMLID_223_" fill="#FFFFFF" class="st0" d="M2.3,19.3c0,21.1,32.6,21.3,32.2-0.3C34.4,9.3,26.4,2.6,17,3.5C7.2,4.3,2.3,11,2.3,19.3z"/>
	<path id="XMLID_218_" fill="currentColor" class="st1" d="M17,3.5C26.4,2.6,34.4,9.3,34.6,19c0.3,21.6-32.2,21.4-32.2,0.3C2.3,11,7.2,4.3,17,3.5z
		 M7.8,25.6c5.5,0.1,12,0.8,11.2-4.6c-0.2-1.2-0.7-2-2-2.6c4.9-5-3.3-7.3-9.2-6C7.8,16.8,7.8,21.2,7.8,25.6z M21.9,14.7
		c1.7-0.3,4.7,0.7,5.5-0.6c0-0.2,0-0.4,0-0.6c-1.3-0.7-3.7-0.1-5.5-0.3C21.9,13.7,21.9,14.2,21.9,14.7z M21,17
		c-5.9,5.5,5.4,14.2,8.1,5.5c-2.4,0.1-6.2,3.6-6.6-0.9c2.3,0,4.6,0,6.9,0C30.5,16,23.8,14.4,21,17z"/>
	<path id="XMLID_210_" fill="#FFFFFF" class="st0" d="M7.8,12.4c5.9-1.2,14.1,1.1,9.2,6c1.3,0.6,1.8,1.4,2,2.6c0.8,5.4-5.7,4.7-11.2,4.6
		C7.8,21.2,7.8,16.8,7.8,12.4z M11,17.8c1.6-0.1,3.5,0.2,4.6-0.3c0.4-0.8,0.4-1.8,0-2.6c-1-0.6-3.1-0.1-4.6-0.3
		C11,15.7,11,16.8,11,17.8z M11,23.3c1.6-0.1,3.8,0.3,4.9-0.3c0.5-0.5,0.2-1.7,0.3-2.6c-0.8-1.2-3.2-0.8-5.2-0.9
		C11,20.8,11,22.1,11,23.3z"/>
	<path id="XMLID_209_" fill="#FFFFFF" class="st0" d="M21.9,13.2c1.7,0.2,4.2-0.4,5.5,0.3c0,0.2,0,0.4,0,0.6c-0.7,1.3-3.8,0.2-5.5,0.6
		C21.9,14.2,21.9,13.7,21.9,13.2z"/>
	<path id="XMLID_207_" fill="currentColor" class="st1" d="M11,14.7c1.5,0.1,3.6-0.3,4.6,0.3c0.4,0.8,0.4,1.8,0,2.6c-1.1,0.5-3,0.2-4.6,0.3
		C11,16.8,11,15.7,11,14.7z"/>
	<path id="XMLID_204_" fill="#FFFFFF" class="st0" d="M29.4,21.6c-2.3,0-4.6,0-6.9,0c0.4,4.5,4.2,1,6.6,0.9c-2.6,8.7-13.9,0-8.1-5.5
		C23.8,14.4,30.5,16,29.4,21.6z M22.5,19.9c1.4,0,2.9,0,4.3,0C27.1,16.9,22.2,16.9,22.5,19.9z"/>
	<path id="XMLID_203_" fill="currentColor" class="st1" d="M26.8,19.9c-1.4,0-2.9,0-4.3,0C22.2,16.9,27.1,16.9,26.8,19.9z"/>
	<path id="XMLID_202_" fill="currentColor" class="st1" d="M11,19.6c2,0,4.3-0.3,5.2,0.9c-0.1,0.9,0.2,2.1-0.3,2.6c-1.1,0.6-3.3,0.1-4.9,0.3
		C11,22.1,11,20.8,11,19.6z"/>
</symbol>


<symbol id="pinterest" viewBox="0 0 36.9 36.9" style="enable-background:new 0 0 36.9 36.9;">
	<title>Pinterest</title>
	<path id="XMLID_4_" fill="#FFFFFF" class="st0" d="M15.6,35.2c-0.1,0-0.2,0-0.4-0.1C15.3,35.1,15.4,35.1,15.6,35.2z"/>
	<path id="XMLID_5_" fill="#FFFFFF" class="st0" d="M29.1,16.4C27.4,4.7,5.4,7.5,7.8,20.7c0.2,1.3,1.1,3.3,3.5,4c1.6-2-0.5-3.5-0.6-5.5
		c-0.3-5.7,8.1-10.9,13-6.3c3.3,3.1,1.5,14.9-4.3,13.2c-4.5-1.3,2.7-10.3-2-11.2c-3.9-0.7-2.8,4.2-2.9,6.6
		c-0.1,4.1-3.1,8.7-2.3,12.3c0.7,0.3,1.2,0.6,1.8,0.8c1.3-2.1,2-4.8,2.5-7.7C23.1,32.5,30.2,24.1,29.1,16.4z"/>
	<path id="XMLID_6_" fill="currentColor" class="st1" d="M17.9,3.2C0.8,3.7-3.1,28.7,12.1,34c0,0,0,0,0,0c-0.7-3.6,2.2-8.3,2.3-12.3
		c0.1-2.4-1.1-7.4,2.9-6.6c4.7,0.9-2.5,9.9,2,11.2c5.8,1.7,7.6-10.1,4.3-13.2c-4.9-4.6-13.2,0.6-13,6.3c0.1,1.9,2.2,3.5,0.6,5.5
		C8.9,24,8,22,7.8,20.7c-2.4-13.3,19.6-16,21.3-4.3c1.1,7.7-6,16-12.7,10.7c-0.5,2.9-1.3,5.5-2.5,7.7c0,0,0,0.1-0.1,0.1
		c0.5,0.1,0.9,0.2,1.4,0.3c0.1,0,0.2,0,0.4,0.1C39.3,38.8,40.6,2.5,17.9,3.2z"/>
</symbol>

<symbol id="instagram" viewBox="0 0 36.9 36.9" style="enable-background:new 0 0 36.9 36.9;">
	<title>Instagram</title>
	<path id="XMLID_6_" fill="#FFFFFF" class="st0" d="M18.4,25.2c3.8,0,6.8-3,6.8-6.8c0-0.2,0-0.4,0-0.7c0-0.1,0-0.2,0-0.2c0-0.1,0-0.3-0.1-0.4
		c0-0.1,0-0.2-0.1-0.3c0-0.1,0-0.2-0.1-0.3c0-0.1-0.1-0.2-0.1-0.3c0-0.1-0.1-0.2-0.1-0.2c-0.1-0.1-0.1-0.3-0.2-0.4
		c0-0.1-0.1-0.1-0.1-0.2c-0.1-0.1-0.1-0.3-0.2-0.4c0,0-0.1-0.1-0.1-0.1c-0.1-0.1-0.2-0.3-0.3-0.4c0,0-0.1-0.1-0.1-0.1
		c-0.1-0.1-0.2-0.3-0.3-0.4c-1.2-1.4-3.1-2.3-5.1-2.3c-2.1,0-3.9,0.9-5.1,2.3c-0.1,0.1-0.2,0.2-0.2,0.3c0,0.1-0.1,0.1-0.1,0.2
		c-0.1,0.1-0.2,0.2-0.2,0.3c0,0.1-0.1,0.1-0.1,0.2c-0.1,0.1-0.1,0.2-0.2,0.3c0,0.1-0.1,0.2-0.1,0.2c-0.1,0.1-0.1,0.2-0.2,0.3
		c0,0.1-0.1,0.2-0.1,0.3c0,0.1-0.1,0.2-0.1,0.3c0,0.1-0.1,0.2-0.1,0.3c0,0.1-0.1,0.2-0.1,0.3c0,0.1,0,0.3-0.1,0.4c0,0.1,0,0.2,0,0.2
		c0,0.2,0,0.4,0,0.7C11.6,22.2,14.7,25.2,18.4,25.2z M14.7,16.2c-0.1,0.2-0.1,0.4-0.1,0.6c0,1.2,1,2.2,2.2,2.2c1.2,0,2.2-1,2.2-2.2
		c0-1.2-1-2.2-2.2-2.2c-0.2,0-0.4,0-0.6,0.1c0.7-0.4,1.4-0.6,2.2-0.6c2.4,0,4.3,1.9,4.3,4.3c0,2.4-1.9,4.3-4.3,4.3
		c-2.4,0-4.3-1.9-4.3-4.3C14.1,17.6,14.3,16.8,14.7,16.2z"/>
	<path id="XMLID_23_" fill="#FFFFFF" class="st0" d="M27.6,6H9.2C7.4,6,6,7.4,6,9.2v4.7h4.6c1.6-2.7,4.5-4.5,7.8-4.5c3.4,0,6.3,1.8,7.8,4.5h4.6V9.2
		C30.9,7.4,29.4,6,27.6,6z M29.8,10.5c0,0.6-0.5,1.1-1.1,1.1h-2.3c-0.6,0-1.1-0.5-1.1-1.1V8.2c0-0.6,0.5-1.1,1.1-1.1h2.3
		c0.6,0,1.1,0.5,1.1,1.1V10.5z"/>
	<path id="XMLID_24_" fill="currentColor" class="st1" d="M28.6,7.1h-2.3c-0.6,0-1.1,0.5-1.1,1.1v2.3c0,0.6,0.5,1.1,1.1,1.1h2.3c0.6,0,1.1-0.5,1.1-1.1
		V8.2C29.8,7.6,29.3,7.1,28.6,7.1z"/>
	<path id="XMLID_25_" fill="currentColor" class="st1" d="M18.4,22.7c2.4,0,4.3-1.9,4.3-4.3c0-2.4-1.9-4.3-4.3-4.3c-0.8,0-1.6,0.2-2.2,0.6
		c0.2-0.1,0.4-0.1,0.6-0.1c1.2,0,2.2,1,2.2,2.2c0,1.2-1,2.2-2.2,2.2c-1.2,0-2.2-1-2.2-2.2c0-0.2,0-0.4,0.1-0.6
		c-0.4,0.7-0.6,1.4-0.6,2.2C14.1,20.8,16,22.7,18.4,22.7z"/>
	<path id="XMLID_28_" fill="currentColor" class="st1" d="M27.6,3.7H9.2c-3.1,0-5.5,2.5-5.5,5.5v18.4c0,3.1,2.5,5.5,5.5,5.5h18.4c3.1,0,5.5-2.5,5.5-5.5
		V9.2C33.2,6.2,30.7,3.7,27.6,3.7z M30.9,13.9h-4.6c-1.6-2.7-4.5-4.5-7.8-4.5c-3.3,0-6.3,1.8-7.8,4.5H6V9.2C6,7.4,7.4,6,9.2,6h18.4
		c1.8,0,3.3,1.5,3.3,3.3V13.9z M11.7,17.8c0-0.1,0-0.2,0-0.2c0-0.1,0-0.3,0.1-0.4c0-0.1,0-0.2,0.1-0.3c0-0.1,0.1-0.2,0.1-0.3
		c0-0.1,0.1-0.2,0.1-0.3c0-0.1,0.1-0.2,0.1-0.3c0-0.1,0.1-0.2,0.2-0.3c0-0.1,0.1-0.2,0.1-0.2c0.1-0.1,0.1-0.2,0.2-0.3
		c0-0.1,0.1-0.1,0.1-0.2c0.1-0.1,0.1-0.2,0.2-0.3c0-0.1,0.1-0.1,0.1-0.2c0.1-0.1,0.2-0.2,0.2-0.3c1.2-1.4,3.1-2.3,5.1-2.3
		c2,0,3.8,0.9,5.1,2.3c0.1,0.1,0.2,0.3,0.3,0.4c0,0,0.1,0.1,0.1,0.1c0.1,0.1,0.2,0.3,0.3,0.4c0,0,0.1,0.1,0.1,0.1
		c0.1,0.1,0.1,0.3,0.2,0.4c0,0.1,0.1,0.1,0.1,0.2c0.1,0.1,0.1,0.2,0.2,0.4c0,0.1,0.1,0.2,0.1,0.2c0,0.1,0.1,0.2,0.1,0.3
		c0,0.1,0.1,0.2,0.1,0.3c0,0.1,0.1,0.2,0.1,0.3c0,0.1,0,0.3,0.1,0.4c0,0.1,0,0.2,0,0.2c0,0.2,0,0.4,0,0.7c0,3.8-3,6.8-6.8,6.8
		c-3.8,0-6.8-3-6.8-6.8C11.6,18.2,11.6,18,11.7,17.8z"/>
</symbol>

<symbol id="academia" viewBox="0 0 36.9 36.9" style="enable-background:new 0 0 36.9 36.9;">
	<title>Academia</title>
	<path id="XMLID_9_" fill="#FFFFFF" class="st0" d="M27.6,24.6c-2.3-5.6-4.5-11.1-6.8-16.7c-0.2-0.4-0.5-1-0.8-1c-1.6-0.1-3.2,0-4.6,0
		C15.6,7.9,16,9,15.6,9.9c-1.8,5-3.8,10-5.8,14.9c-0.2,0.5-0.8,0.9-1.2,1.3c-0.3,0.3-0.5,0.6-0.8,1.1c2.3,0,4.3,0,6.2,0
		c0.3-0.9-0.2-1-0.8-1.1c-0.7-0.1-1.4-0.4-1.2-1.1c0.3-1.3,0.8-2.5,1.3-3.7c0.1-0.2,0.5-0.2,0.8-0.2c1.3,0,2.7,0,4,0
		c2.9,0,2.9,0,3.8,2.8c0.5,1.6,0.3,2.1-1.4,2.4c-0.8,0.1-0.9,0.4-0.6,1.1c3.1,0,6.2,0,9.3,0c0.1-0.1,0.2-0.2,0.3-0.3
		c-0.2-0.3-0.4-0.6-0.6-0.9C28.5,25.6,27.9,25.2,27.6,24.6z M14.2,19c1-2.5,1.9-4.8,2.9-7.5c1.1,2.7,2,5,3,7.5
		C18.1,19,16.2,19,14.2,19z"/>
	<path id="XMLID_10_" fill="currentColor" class="st1" d="M14.2,19c2,0,3.9,0,5.9,0c-1-2.5-1.9-4.8-3-7.5C16.1,14.2,15.2,16.6,14.2,19z"/>
	<path id="XMLID_13_" fill="currentColor" class="st1" d="M17.6,2.1C3.1,3-3.7,20.6,6.9,30.6c8.5,8,25.9,4.4,27.9-8.9C36.7,9.1,27.2,1.4,17.6,2.1z
		 M29.4,27.3c-3.1,0-6.2,0-9.3,0c-0.3-0.7-0.2-0.9,0.6-1.1c1.7-0.3,1.9-0.8,1.4-2.4c-0.9-2.8-0.9-2.8-3.8-2.8c-1.3,0-2.7,0-4,0
		c-0.3,0-0.8,0.1-0.8,0.2c-0.5,1.2-1,2.4-1.3,3.7c-0.2,0.8,0.5,1,1.2,1.1c0.6,0.1,1.1,0.2,0.8,1.1c-1.9,0-3.9,0-6.2,0
		c0.3-0.5,0.5-0.8,0.8-1.1c0.4-0.5,1-0.8,1.2-1.3c2-5,4-9.9,5.8-14.9C16,9,15.6,7.9,15.5,6.8c1.4,0,3-0.1,4.6,0c0.3,0,0.6,0.6,0.8,1
		c2.3,5.6,4.5,11.2,6.8,16.7c0.3,0.6,0.9,1.1,1.4,1.6c0.2,0.3,0.4,0.6,0.6,0.9C29.6,27.1,29.5,27.2,29.4,27.3z"/>
</symbol>
</svg>
