<?xml version="1.0" encoding="utf-8"?>
<!-- Generator: Adobe Illustrator 15.0.2, SVG Export Plug-In . SVG Version: 6.00 Build 0)  -->
<!DOCTYPE svg PUBLIC "-//W3C//DTD SVG 1.1//EN" "http://www.w3.org/Graphics/SVG/1.1/DTD/svg11.dtd">
<svg version="1.1" id="Livello_1" xmlns="http://www.w3.org/2000/svg" xmlns:xlink="http://www.w3.org/1999/xlink" x="0px" y="0px"
	 width="42.52px" height="42.52px" viewBox="0 0 42.52 42.52" enable-background="new 0 0 42.52 42.52" xml:space="preserve">
<g>
	<path d="M30.416,15.819c-0.721,0-1.311-0.59-1.311-1.311v-2.621c0-0.721,0.59-1.309,1.311-1.309h2.621
		c0.715,0,1.301,0.588,1.301,1.309v2.621c0,0.721-0.586,1.311-1.301,1.311H30.416z"/>
	<path d="M21.256,18.681c-0.945,0-1.826,0.275-2.58,0.734c0.236-0.07,0.479-0.121,0.74-0.121c1.398,0,2.531,1.131,2.531,2.525
		c0,1.396-1.133,2.529-2.531,2.529s-2.529-1.129-2.529-2.529c0-0.262,0.051-0.502,0.121-0.738c-0.459,0.754-0.734,1.635-0.734,2.58
		c0,2.762,2.23,4.988,4.99,4.988c2.752,0,4.988-2.229,4.988-4.988C26.252,20.909,24.016,18.681,21.256,18.681L21.256,18.681z"/>
	<path d="M21.256,15.819c4.338,0,7.852,3.516,7.852,7.844c0,4.34-3.514,7.852-7.852,7.852c-4.33,0-7.844-3.512-7.844-7.852
		C13.412,19.333,16.926,15.819,21.256,15.819 M21.256,13.197c-5.768,0-10.463,4.695-10.463,10.465
		c0,5.775,4.695,10.473,10.463,10.473c5.775,0,10.471-4.695,10.471-10.473C31.726,17.894,27.031,13.197,21.256,13.197L21.256,13.197
		z"/>
	<path d="M31.887,6.657h-21.26c-3.521,0-6.375,2.854-6.375,6.375v21.26c0,3.523,2.854,6.383,6.375,6.383h21.26
		c3.525,0,6.381-2.857,6.381-6.383v-21.26C38.267,9.513,35.412,6.657,31.887,6.657L31.887,6.657z M35.648,18.429h-8.553
		c1.252,1.396,2.012,3.223,2.012,5.232c0,4.34-3.514,7.852-7.852,7.852c-4.33,0-7.844-3.512-7.844-7.852
		c0-2.012,0.76-3.84,2.006-5.232H6.87v-5.396c0-2.068,1.686-3.756,3.756-3.756h21.26c2.076,0,3.762,1.688,3.762,3.756V18.429
		L35.648,18.429z"/>
</g>
</svg>
